<svg width="176" height="70" viewBox="0 0 176 70" fill="none" xmlns="http://www.w3.org/2000/svg">
<path d="M12.1 48.2H20.9V54H8.2C6 51.9333 4.33333 49.3167 3.2 46.15C2.06667 42.9833 1.5 39.7333 1.5 36.4C1.5 33.0333 2.13333 29.8 3.4 26.7C4.66667 23.6 6.55 21.0333 9.05 19H20.9V25H12.1C11.2 26.0333 10.4167 27.7 9.75 30C9.11667 32.3 8.8 34.5 8.8 36.6C8.8 38.7 9.11667 40.9 9.75 43.2C10.4167 45.5 11.2 47.1667 12.1 48.2ZM29.1112 30.7273V54H24.1907V30.7273H29.1112ZM52.6254 30.7273V54H48.3754L38.2504 39.3523H38.0799V54H33.1594V30.7273H37.4776L47.5231 45.3636H47.7276V30.7273H52.6254ZM56.6907 54V30.7273H72.3725V34.7841H61.6112V40.3295H71.5657V44.3864H61.6112V49.9432H72.418V54H56.6907ZM88.9094 37.4205C88.8185 36.5038 88.4284 35.7917 87.739 35.2841C87.0496 34.7765 86.114 34.5227 84.9322 34.5227C84.1291 34.5227 83.4511 34.6364 82.8981 34.8636C82.3451 35.0833 81.9208 35.3902 81.6254 35.7841C81.3375 36.178 81.1935 36.625 81.1935 37.125C81.1784 37.5417 81.2655 37.9053 81.4549 38.2159C81.6519 38.5265 81.9208 38.7955 82.2617 39.0227C82.6026 39.2424 82.9966 39.4356 83.4435 39.6023C83.8905 39.7614 84.3678 39.8977 84.8754 40.0114L86.9663 40.5114C87.9814 40.7386 88.9132 41.0417 89.7617 41.4205C90.6102 41.7992 91.3451 42.2652 91.9663 42.8182C92.5875 43.3712 93.0685 44.0227 93.4094 44.7727C93.7579 45.5227 93.936 46.3826 93.9435 47.3523C93.936 48.7765 93.5723 50.0114 92.8526 51.0568C92.1405 52.0947 91.1102 52.9015 89.7617 53.4773C88.4208 54.0455 86.8034 54.3295 84.9094 54.3295C83.0307 54.3295 81.3943 54.0417 80.0004 53.4659C78.614 52.8902 77.5307 52.0379 76.7504 50.9091C75.9776 49.7727 75.5723 48.3674 75.5344 46.6932H80.2958C80.3488 47.4735 80.5723 48.125 80.9663 48.6477C81.3678 49.1629 81.9019 49.553 82.5685 49.8182C83.2428 50.0758 84.0041 50.2045 84.8526 50.2045C85.686 50.2045 86.4094 50.0833 87.0231 49.8409C87.6443 49.5985 88.1254 49.2614 88.4663 48.8295C88.8072 48.3977 88.9776 47.9015 88.9776 47.3409C88.9776 46.8182 88.8223 46.3788 88.5117 46.0227C88.2087 45.6667 87.7617 45.3636 87.1708 45.1136C86.5875 44.8636 85.8716 44.6364 85.0231 44.4318L82.489 43.7955C80.5269 43.3182 78.9776 42.572 77.8413 41.5568C76.7049 40.5417 76.1405 39.1742 76.1481 37.4545C76.1405 36.0455 76.5155 34.8144 77.2731 33.7614C78.0382 32.7083 79.0875 31.8864 80.4208 31.2955C81.7541 30.7045 83.2693 30.4091 84.9663 30.4091C86.6935 30.4091 88.2011 30.7045 89.489 31.2955C90.7844 31.8864 91.792 32.7083 92.5117 33.7614C93.2314 34.8144 93.6026 36.0341 93.6254 37.4205H88.9094ZM95.8896 30.7273H101.401L106.708 40.75H106.935L112.242 30.7273H117.753L109.265 45.7727V54H104.378V45.7727L95.8896 30.7273ZM139.907 30.7273V54H135.657L125.532 39.3523H125.361V54H120.441V30.7273H124.759L134.804 45.3636H135.009V30.7273H139.907ZM154.049 48.2H162.849V54H150.149C147.949 51.9333 146.283 49.3167 145.149 46.15C144.016 42.9833 143.449 39.7333 143.449 36.4C143.449 33.0333 144.083 29.8 145.349 26.7C146.616 23.6 148.499 21.0333 150.999 19H162.849V25H154.049C153.149 26.0333 152.366 27.7 151.699 30C151.066 32.3 150.749 34.5 150.749 36.6C150.749 38.7 151.066 40.9 151.699 43.2C152.366 45.5 153.149 47.1667 154.049 48.2Z" fill="white"/>
<rect x="20" y="19" width="131" height="6" fill="white"/>
<rect x="159" y="19" width="15" height="6" rx="3" fill="white"/>
<rect x="157" y="32.1422" width="20" height="6" rx="3" transform="rotate(-45 157 32.1422)" fill="white"/>
<rect x="161.243" y="8" width="20" height="6" rx="3" transform="rotate(45 161.243 8)" fill="white"/>
</svg>
